<svg width="1366" height="1252" viewBox="0 0 1366 1252" fill="none" xmlns="http://www.w3.org/2000/svg">
<rect width="1366" height="1243" rx="200" fill="#460000"/>
<g opacity="0.48">
<path d="M684 119C945.556 119 1158 333.675 1158 599C1158 864.325 945.556 1079 684 1079C422.444 1079 210 864.325 210 599C210 333.675 422.444 119 684 119Z" stroke="#2E0000" stroke-width="40"/>
<path d="M796.993 774.521L801.483 760.702H1181.67L885.848 545.776L874.092 537.235L878.582 523.416L991.575 175.659L695.756 390.584L684 399.125L672.244 390.584L376.424 175.659L489.418 523.416L493.908 537.235L482.152 545.776L186.333 760.702H566.517L571.007 774.521L684 1122.28L796.993 774.521Z" stroke="#2E0000" stroke-width="40"/>
<path d="M693.511 1190.09L823.279 790.702H1274L1249.1 772.612L909.359 525.777L1039.13 126.388L1048.64 97.1172L1023.74 115.208L684 362.043L344.26 115.208L319.361 97.1172L328.872 126.388L458.64 525.777L118.901 772.612L94.002 790.702H544.721L674.489 1190.09L684 1219.36L693.511 1190.09Z" stroke="#460000" stroke-width="20"/>
<path d="M770.515 181.305C772.062 181.321 773.515 182.052 774.449 183.286C776.86 186.47 779.561 189.878 782.524 193.449L948.06 290.392C948.981 290.28 949.901 290.154 950.819 290.012C952.353 289.712 953.849 289.438 955.305 289.188L955.556 289.15C958.147 288.836 960.565 290.58 961.063 293.171C961.578 295.846 959.856 298.44 957.191 299.006C955.662 299.33 954.128 299.612 952.592 299.855C927.858 304.703 892.496 316.308 862.829 336.253C833.381 356.051 810.183 383.588 807.527 420.394L807.469 421.265C807.312 423.755 805.342 425.748 802.854 425.936C800.443 426.117 798.26 424.549 797.646 422.233L797.592 422.007C791.293 392.894 775.877 351.956 750.406 323.447C737.719 309.247 722.714 298.325 705.284 293.29C688.696 288.498 669.506 288.919 647.401 297.491V519.62C670.384 533.38 708.747 546.195 751.64 541.232C795.782 536.125 845.22 512.138 888 449.828C889.24 448.022 891.511 447.234 893.604 447.883C895.696 448.532 897.122 450.468 897.122 452.658V769.359C899.174 782.428 913.673 812.353 957.228 821.939C959.696 822.483 961.371 824.782 961.131 827.298C960.89 829.814 958.81 831.754 956.283 831.82C916.065 832.869 852.47 839.8 792.666 857.15C732.563 874.587 677.674 902.156 653.103 943.527C652.038 945.319 649.974 946.263 647.923 945.896C645.871 945.528 644.263 943.927 643.887 941.877C641.056 926.457 629.244 913.231 611.742 903.421C594.306 893.648 571.868 887.67 549.3 886.514C526.71 885.356 504.457 889.052 487.259 898.13C470.226 907.121 458.216 921.312 455.266 941.627C454.422 949.168 454.015 955.774 458.571 965.393L459.029 966.337L459.712 967.69C463.16 974.434 467.176 980.78 473.038 986.161C479.241 991.855 487.764 996.698 500.423 999.511C503.119 1000.11 504.818 1002.78 504.219 1005.48C503.62 1008.17 500.949 1009.87 498.254 1009.27C484.042 1006.11 473.889 1000.52 466.275 993.528C458.858 986.719 454.095 978.805 450.3 971.235C431.947 947.425 412.365 907.219 426.968 865.138C441.673 822.761 490.213 780.878 602.748 752.218L603.086 752.127C606.525 751.156 608.566 749.092 609.861 746.616C611.277 743.909 611.788 740.678 611.788 738.038C611.788 735.438 613.781 733.272 616.372 733.056C618.963 732.839 621.287 734.644 621.719 737.208C624.778 755.385 635.269 782.628 656.707 804.624C677.989 826.46 710.22 843.314 757.396 840.854L757.657 840.848C760.636 840.848 765.017 840.544 768.507 839.715C770.109 839.334 771.216 838.911 771.866 838.546V592.658C771.248 589.901 768.646 586.193 762.908 582.049C757.101 577.855 748.831 573.765 738.621 570.25C718.227 563.229 690.835 558.75 661.811 559.915C603.744 562.247 540.414 586.998 512.586 657.433C511.704 659.665 509.359 660.956 507.001 660.507C504.643 660.058 502.936 657.996 502.936 655.595V339.384C499.259 329.871 482.446 309.244 440.842 301.378C435.55 300.783 430.552 300.108 425.886 299.371L423.881 299.048C421.227 298.61 419.396 296.15 419.735 293.482C420.075 290.815 422.465 288.894 425.144 289.135C431.229 289.683 436.946 290.478 442.311 291.479C483.557 296.076 543.599 295.727 603.887 280.813C664.248 265.882 724.462 236.457 766.54 183.205L766.726 182.983C767.683 181.906 769.064 181.29 770.515 181.305ZM770.376 194.346C726.738 246.757 666.147 275.714 606.288 290.521C597.31 292.742 588.339 294.644 579.435 296.264C580.044 297.068 636.808 292.564 637.453 293.396C637.703 291.673 638.838 290.183 640.477 289.5L641.658 289.013C666.438 278.937 688.584 278.057 708.06 283.683C709.275 284.034 710.478 284.41 711.669 284.81C713.467 286.758 791.496 218.602 793.403 220.586C784.475 211.295 776.694 202.309 770.376 194.346Z" fill="#2E0000" stroke="#460000" stroke-width="10" stroke-linecap="round" stroke-linejoin="round"/>
<path d="M705.34 335.586V518.118M705.34 593.649V801.358" stroke="#2E0000" stroke-width="3"/>
</g>
<path d="M506.55 759.971L554.471 771.352L569.446 785.729L604.788 791.12L746.753 796.511L800.664 778.541C814.242 776.145 843.913 771.352 853.976 771.352C864.04 771.352 862.962 763.765 861.165 759.971L866.556 744.397L875.541 727.625L879.135 709.654L891.115 687.491L875.541 672.515L866.556 595.243C885.125 582.264 923.582 556.307 928.853 556.307C934.124 556.307 950.617 527.555 958.204 513.178L956.407 453.876L961.799 366.42L942.031 280.762H922.264L853.976 320.297L782.095 384.99C778.102 395.772 769.037 419.613 764.724 428.718C760.411 437.823 769.715 478.036 774.907 497.005L727.585 486.822L732.377 459.866L716.204 435.906L702.426 447.287L696.436 417.336L673.674 428.718V474.243L641.327 435.906L647.916 486.822C627.75 491.015 587.416 498.922 587.416 497.005C587.416 495.088 595.403 450.681 599.396 428.718L587.416 389.782L554.471 349.049L468.812 293.341L426.881 280.762L403.52 331.079L408.312 435.906V517.371L502.955 588.055L487.98 658.139L481.391 677.308L487.98 697.075L477.198 712.649L506.55 739.006V759.971Z" fill="#460000"/>
<path d="M362.187 792.917C378.36 810.888 477.796 911.522 506.549 937.279L393.335 885.764L301.686 816.279L236.394 746.195L191.468 683.897L223.216 697.675L252.568 690.486V603.031C239.389 583.463 212.074 542.531 208.241 535.342C204.407 528.154 181.085 518.37 169.904 514.377L138.156 485.025L262.152 500.001L368.776 564.095L435.865 631.783L334.632 608.422L313.068 657.541C324.05 696.676 349.248 778.541 362.187 792.917Z" fill="#460000"/>
<path d="M943.228 865.398L825.822 947.463L970.184 885.764L1069.02 809.091L1147.49 731.219L1169.65 683.897C1159.27 688.09 1135.99 696.477 1125.93 696.477C1115.86 696.477 1116.54 688.09 1118.14 683.897L1112.15 638.971L1125.93 579.07L1169.65 529.951L1240.34 491.615L1190.02 486.223L1104.36 503.595C1100.05 503.595 1039.47 536.341 1009.72 552.714L932.446 631.783L1009.72 608.422L1045.66 619.803V668.922L1019.3 769.556L943.228 865.398Z" fill="#460000"/>
<path d="M772.512 792.69C744.819 797.633 713.378 798.953 680.295 798.953C645.898 798.953 613.879 797.526 586.221 792.083C571.843 788.675 564.053 783.644 555.427 773.102C541.849 776.097 486.183 765.963 506.549 737.371M526.674 741.354C510.102 742.153 456.233 722.235 489.144 694.081M503.91 706.012C491.331 699.623 466.195 673.066 488.371 664.68C493.214 587.372 543.038 522.262 611.976 495.218C623.65 490.639 635.872 487.652 648.517 485.854C648.517 485.854 635.337 455.264 644.322 438.272C652.189 426.514 649.314 452.272 676.149 483.42C673.753 473.237 668.124 457.062 671.958 442.686C677.069 423.519 689.927 416.329 695.319 417.528C700.712 418.726 703.226 428.19 696.517 475.632C697.714 475.632 697.712 473.832 709.095 442.686C713.299 431.183 723.47 437.295 730.658 457.661C735.732 472.038 727.586 477.247 719.2 486.828C809.882 503.378 878.54 580.49 878.54 676.061C909.684 690.487 867.762 705.613 855.183 712.002M768.322 793.468C774.312 792.27 795.04 789.634 803.665 779.092C817.243 782.087 883.927 769.557 859.966 740.021M832.418 747.344C848.991 748.143 903.694 725.829 873.744 703.054" stroke="#F8F0E3" stroke-width="13" stroke-linecap="round"/>
<path d="M646.716 485.397C604.186 490.788 588.438 503.241 585.307 500.736C574.061 491.738 616.213 425.426 585.434 384.263C573.975 368.939 524.039 320.298 476.847 299.152C450.14 287.185 411.54 224.981 406.566 365.348C404.447 425.154 415.091 434.197 409.585 470.319C404.079 506.441 408.109 512.603 414.477 525.51C419.571 535.835 484.453 578.69 499.65 588.063C500.741 589.133 507.745 590.4 496.963 615.558" stroke="#F8F0E3" stroke-width="13"/>
<path d="M429.875 281.306C431.672 279.509 530.509 375.35 550.276 404.103C570.044 432.855 567.648 504.142 541.89 530.499C521.284 551.584 496.565 539.284 486.781 530.499C475.6 521.513 449.882 507.614 436.464 523.907" stroke="#F8F0E3" stroke-width="8" stroke-linecap="round"/>
<path d="M934.18 280.73C932.383 278.933 833.546 374.774 813.778 403.527C794.011 432.279 796.407 503.566 822.164 529.923C842.77 551.008 867.49 538.708 877.274 529.923C888.455 520.937 914.173 507.037 927.591 523.331" stroke="#F8F0E3" stroke-width="8" stroke-linecap="round"/>
<path d="M717.398 486.595C736.566 488.392 768.019 498.454 771.15 495.949C782.396 486.95 750.994 430.281 781.773 389.118C793.232 373.794 843.168 325.154 890.36 304.008C917.067 292.04 955.667 229.837 960.641 370.203C962.761 430.009 952.116 439.053 957.622 475.175C963.128 511.297 959.098 517.458 952.73 530.365C947.636 540.691 887.14 583.423 871.943 592.796C870.745 595.43 864.156 591.237 871.943 624.782" stroke="#F8F0E3" stroke-width="13"/>
<path d="M434.664 313.656C422.484 378.748 419.21 508.812 503.551 508.333" stroke="#F8F0E3" stroke-width="8" stroke-linecap="round"/>
<path d="M933.043 314.258C945.223 379.35 948.497 509.414 864.156 508.934" stroke="#F8F0E3" stroke-width="8" stroke-linecap="round"/>
<path d="M655.484 576.799C653.053 577.044 650.693 577.122 648.512 577.122C651 576.85 653.32 576.745 655.484 576.799C668.75 575.463 684.118 569.145 683.946 543.279C683.882 542.188 683.853 541.138 683.853 540.145C683.909 541.22 683.94 542.264 683.946 543.279C684.776 557.363 691.539 578.405 719.195 577.122C702.564 577.894 683.853 579.195 683.853 612.026C681.979 591.149 675.316 577.296 655.484 576.799Z" fill="#F8F0E3"/>
<path d="M648.512 577.122C663.064 577.122 685.586 573.666 683.853 540.145C683.853 553.969 689.397 578.504 719.195 577.122C702.564 577.894 683.853 579.195 683.853 612.026C681.774 588.872 673.805 574.357 648.512 577.122Z" stroke="#F8F0E3" stroke-width="5" stroke-linejoin="round"/>
<path d="M638.649 679.176C638.649 683.898 640.545 689.289 640.918 689.888C641.292 690.487 610.657 709.751 584.581 703.469C579.056 702.138 554.394 691.23 555.414 669.748C556.229 652.562 552.864 652.745 550.643 649.912C550.631 649.864 563.533 616.566 604.244 619.617C644.955 622.668 638.649 673.186 638.649 679.176Z" fill="#F8F0E3" stroke="#F8F0E3" stroke-width="6"/>
<path d="M728.093 678.946C728.093 683.668 726.198 689.059 725.824 689.658C725.45 690.257 756.085 709.52 782.161 703.239C787.686 701.908 812.348 690.999 811.328 669.517C810.513 652.332 813.879 652.514 816.1 649.682C816.112 649.633 803.209 616.336 762.498 619.387C721.787 622.438 728.093 672.956 728.093 678.946Z" fill="#F8F0E3" stroke="#F8F0E3" stroke-width="6"/>
<ellipse cx="599.608" cy="662.221" rx="16.7723" ry="46.7229" fill="#460000"/>
<ellipse cx="758.944" cy="662.221" rx="16.7723" ry="46.7229" fill="#460000"/>
<path d="M616.386 595.561C617.576 594.12 619.863 593.654 622.784 594.278C625.677 594.897 629.048 596.565 632.188 599.157C635.328 601.749 637.605 604.743 638.76 607.467C639.927 610.216 639.902 612.55 638.712 613.991C637.522 615.433 635.235 615.899 632.315 615.275C629.421 614.656 626.05 612.988 622.91 610.396C619.77 607.804 617.494 604.81 616.338 602.086C615.172 599.337 615.196 597.003 616.386 595.561Z" fill="#F8F0E3" stroke="#F8F0E3"/>
<path d="M751.657 594.926C750.467 593.485 748.18 593.019 745.259 593.643C742.365 594.262 738.995 595.93 735.855 598.522C732.715 601.114 730.438 604.108 729.283 606.832C728.116 609.581 728.141 611.915 729.331 613.356C730.521 614.798 732.808 615.264 735.728 614.64C738.622 614.022 741.993 612.353 745.133 609.761C748.273 607.169 750.549 604.175 751.705 601.451C752.871 598.702 752.847 596.368 751.657 594.926Z" fill="#F8F0E3" stroke="#F8F0E3"/>
<path d="M697.285 721.753C689.127 721.625 672.124 721.447 669.371 721.753L663.489 733.616L658.282 721.753H646.428C636.639 725.723 647.472 739.948 654.737 746.565C669.371 759.892 697.285 759.041 713.207 746.565C735.616 729.005 725.964 721.753 721.375 721.753H709.521L703.623 733.616L697.285 721.753Z" fill="#F8F0E3" stroke="#F8F0E3"/>
<path d="M1183.48 675.967C1080.78 845.56 885.473 939.209 800.66 964.834C999.075 853.015 1050.43 734.207 1050.43 648.013C1050.43 579.057 958.614 619.281 912.706 648.013C1058.37 482.147 1200.6 474.848 1253.51 491.931C1104.12 519.886 1106.45 650.342 1115.79 685.286C1123.26 713.241 1164.03 690.721 1183.48 675.967Z" stroke="#F8F0E3" stroke-width="13"/>
<path d="M183.027 675.967C285.736 845.56 481.039 939.209 565.852 964.834C367.437 853.015 316.082 734.207 316.082 648.013C316.082 579.057 407.898 619.281 453.805 648.013C308.146 482.147 165.909 474.848 112.999 491.931C262.393 519.886 260.059 650.342 250.722 685.286C243.252 713.241 202.48 690.721 183.027 675.967Z" stroke="#F8F0E3" stroke-width="13"/>
<path d="M624.711 910.615C619.643 911.125 614.723 911.286 610.176 911.286C615.363 910.72 620.2 910.502 624.711 910.615C652.368 907.83 684.405 894.668 684.048 840.779C683.914 838.507 683.854 836.321 683.854 834.25C683.97 836.49 684.034 838.666 684.048 840.779C685.777 870.122 699.878 913.959 757.533 911.286C722.86 912.894 683.854 915.606 683.854 984.003C679.947 940.51 666.056 911.65 624.711 910.615Z" fill="#F8F0E3"/>
<path d="M610.176 911.286C640.514 911.286 687.466 904.087 683.854 834.25C683.854 863.052 695.412 914.166 757.533 911.286C722.86 912.894 683.854 915.606 683.854 984.003C679.52 935.765 662.906 905.527 610.176 911.286Z" stroke="#F8F0E3" stroke-width="5" stroke-linejoin="round"/>
<path d="M708.412 742.001C708.412 748.512 699.612 753.92 688.046 754.987C686.683 755.113 685.881 749.189 684.451 749.189C683.438 749.189 681.839 755.146 680.857 755.082C668.706 754.289 659.293 748.735 659.293 742.001C659.293 734.722 670.289 728.822 683.852 728.822C697.416 728.822 708.412 734.722 708.412 742.001Z" fill="#460000"/>
</svg>
