<svg width="16" height="16" viewBox="0 0 16 16" fill="none" xmlns="http://www.w3.org/2000/svg">
<path d="M13.0348 1.9973C12.8743 2.00921 12.7168 2.04685 12.5683 2.1088H12.5663C12.4238 2.1653 11.7463 2.4503 10.7163 2.8823L7.02531 4.4368C4.37681 5.5518 1.77332 6.6498 1.77332 6.6498L1.80432 6.6378C1.80432 6.6378 1.62482 6.6968 1.43732 6.8253C1.32122 6.89868 1.22148 6.99519 1.14432 7.1088C1.05232 7.2438 0.978315 7.4503 1.00582 7.6638C1.05082 8.0248 1.28482 8.2413 1.45282 8.3608C1.62282 8.4818 1.78482 8.5383 1.78482 8.5383H1.78882L4.23032 9.3608C4.33982 9.7123 4.97431 11.7983 5.12681 12.2788C5.21681 12.5658 5.30432 12.7453 5.41382 12.8823C5.46615 12.9523 5.52931 13.0108 5.60331 13.0578C5.64175 13.0809 5.68312 13.0987 5.72632 13.1108L5.70131 13.1048C5.70881 13.1068 5.71481 13.1128 5.72031 13.1148C5.74031 13.1203 5.75381 13.1223 5.77931 13.1263C6.16581 13.2433 6.47632 13.0033 6.47632 13.0033L6.49381 12.9893L7.93532 11.6768L10.3513 13.5303L10.4063 13.5538C10.9098 13.7748 11.4198 13.6518 11.6893 13.4348C11.9608 13.2163 12.0663 12.9368 12.0663 12.9368L12.0838 12.8918L13.9508 3.3273C14.0038 3.0913 14.0173 2.8703 13.9588 2.6558C13.8988 2.43856 13.7594 2.25175 13.5683 2.1323C13.4081 2.0348 13.2222 1.98777 13.0348 1.9973ZM12.9843 3.0223C12.9823 3.0538 12.9883 3.0503 12.9743 3.1108V3.1163L11.1248 12.5813C11.1168 12.5948 11.1033 12.6243 11.0663 12.6538C11.0273 12.6848 10.9963 12.7043 10.8338 12.6398L7.87882 10.3743L6.09381 12.0013L6.46881 9.6063L11.2968 5.1063C11.4958 4.9213 11.4293 4.8823 11.4293 4.8823C11.4433 4.6553 11.1288 4.8158 11.1288 4.8158L5.04081 8.5873L5.03882 8.5773L2.12082 7.5948V7.5928L2.11332 7.5913L2.12832 7.5853L2.14432 7.5773L2.15982 7.5718C2.15982 7.5718 4.76532 6.4738 7.41382 5.3588C8.73981 4.8003 10.0758 4.2378 11.1033 3.8038C11.7127 3.5473 12.3227 3.2923 12.9333 3.0388C12.9743 3.0228 12.9548 3.0223 12.9843 3.0223Z" fill="white"/>
</svg>
