<svg width="1145" height="729" viewBox="0 0 1145 729" fill="none" xmlns="http://www.w3.org/2000/svg">
<path d="M661.52 534.69C633.827 539.633 602.386 540.953 569.303 540.953C534.905 540.953 502.887 539.526 475.228 534.083C460.851 530.675 453.06 525.644 444.435 515.102C430.857 518.097 375.191 507.963 395.557 479.371M415.682 483.354C399.109 484.153 345.241 464.235 378.152 436.081M392.918 448.012C380.338 441.623 355.203 415.066 377.378 406.68C382.222 329.372 432.046 264.262 500.983 237.218C512.658 232.639 524.88 229.652 537.524 227.854C537.524 227.854 524.345 197.264 533.33 180.272C541.197 168.514 538.321 194.272 565.157 225.42C562.761 215.237 557.132 199.062 560.965 184.686C566.077 165.519 578.934 158.329 584.327 159.528C589.719 160.726 592.234 170.19 585.525 217.632C586.722 217.632 586.72 215.832 598.103 184.686C602.307 173.183 612.478 179.295 619.666 199.661C624.74 214.038 616.594 219.247 608.208 228.828C698.89 245.378 767.548 322.49 767.548 418.061C798.692 432.487 756.77 447.613 744.19 454.002M657.329 535.468C663.32 534.27 684.048 531.634 692.673 521.092C706.251 524.087 772.935 511.557 748.974 482.021M721.426 489.344C737.999 490.143 792.702 467.829 762.751 445.054" stroke="#F8F0E3" stroke-width="13" stroke-linecap="round"/>
<path d="M535.728 227.397C493.198 232.788 477.45 245.241 474.319 242.736C463.073 233.738 505.225 167.426 474.445 126.263C462.987 110.939 413.05 62.2982 365.859 41.1522C339.152 29.185 300.552 -33.0189 295.578 107.348C293.458 167.154 304.102 176.197 298.597 212.319C293.091 248.441 297.12 254.603 303.489 267.51C308.583 277.835 373.464 320.69 388.662 330.063C389.752 331.133 396.757 332.4 385.975 357.558" stroke="#F8F0E3" stroke-width="13"/>
<path d="M318.887 23.3062C320.684 21.5092 419.521 117.35 439.288 146.103C459.055 174.855 456.659 246.142 430.902 272.499C410.296 293.584 385.577 281.284 375.793 272.499C364.611 263.513 338.894 249.614 325.476 265.907" stroke="#F8F0E3" stroke-width="8" stroke-linecap="round"/>
<path d="M823.191 22.73C821.394 20.933 722.557 116.774 702.79 145.527C683.023 174.279 685.419 245.566 711.176 271.923C731.782 293.008 756.501 280.708 766.285 271.923C777.467 262.937 803.184 249.037 816.602 265.331" stroke="#F8F0E3" stroke-width="8" stroke-linecap="round"/>
<path d="M606.41 228.595C625.578 230.392 657.031 240.454 660.162 237.949C671.408 228.95 640.006 172.281 670.785 131.118C682.244 115.794 732.18 67.1537 779.371 46.0076C806.078 34.0405 844.678 -28.1634 849.653 112.203C851.772 172.009 841.128 181.053 846.634 217.175C852.14 253.297 848.11 259.458 841.742 272.365C836.647 282.691 776.152 325.423 760.955 334.796C759.757 337.43 753.167 333.237 760.955 366.782" stroke="#F8F0E3" stroke-width="13"/>
<path d="M323.676 55.6562C311.496 120.748 308.221 250.812 392.562 250.333" stroke="#F8F0E3" stroke-width="8" stroke-linecap="round"/>
<path d="M822.055 56.2578C834.234 121.35 837.509 251.414 753.168 250.934" stroke="#F8F0E3" stroke-width="8" stroke-linecap="round"/>
<path d="M544.492 318.799C542.061 319.044 539.701 319.122 537.52 319.122C540.008 318.85 542.328 318.745 544.492 318.799C557.758 317.463 573.125 311.145 572.954 285.279C572.89 284.188 572.861 283.138 572.861 282.145C572.917 283.22 572.947 284.264 572.954 285.279C573.784 299.363 580.547 320.405 608.203 319.122C591.572 319.894 572.861 321.195 572.861 354.026C570.987 333.149 564.324 319.296 544.492 318.799Z" fill="#F8F0E3"/>
<path d="M537.52 319.122C552.072 319.122 574.594 315.666 572.861 282.145C572.861 295.969 578.405 320.504 608.203 319.122C591.572 319.894 572.861 321.195 572.861 354.026C570.782 330.872 562.813 316.357 537.52 319.122Z" stroke="#F8F0E3" stroke-width="5" stroke-linejoin="round"/>
<path d="M485.177 358.482C477.564 362.903 471.845 381.701 471.845 404.221C471.845 426.363 477.374 444.907 484.796 449.725C481.041 449.731 477.258 449.377 473.539 448.539L472.887 448.388C469.673 447.613 461.712 444.343 454.637 438.477C447.524 432.579 440.854 423.659 441.426 411.607L441.488 410.066C441.744 402.637 441.105 399.293 440.403 397.598C440.065 396.781 439.693 396.302 439.27 395.854C439.006 395.576 438.789 395.375 438.418 395.008C438.084 394.678 437.684 394.267 437.29 393.765L436.893 393.259L436.739 392.634C436.658 392.102 436.691 391.421 436.719 391.278C436.733 391.214 436.76 391.113 436.771 391.075C436.789 391.012 436.806 390.962 436.812 390.945C436.826 390.903 436.839 390.867 436.846 390.849C436.862 390.806 436.879 390.76 436.896 390.716C436.932 390.625 436.98 390.507 437.04 390.365C437.161 390.08 437.336 389.681 437.57 389.188C438.039 388.2 438.745 386.821 439.722 385.19C441.672 381.933 444.715 377.634 449.106 373.436C456.747 366.13 468.398 359.2 485.177 358.482ZM492.15 358.54C492.589 358.565 493.031 358.594 493.477 358.627L494.486 358.714C504.828 359.695 512.451 363.641 517.95 369.274C523.571 375.032 526.793 382.361 528.629 389.554C532.038 402.909 530.838 416.772 530.675 420.559L530.658 421.179C530.658 423.186 531.068 425.441 531.557 427.329C531.797 428.258 532.046 429.058 532.249 429.644C532.351 429.938 532.436 430.164 532.498 430.315C532.542 430.422 532.561 430.46 532.557 430.452L532.624 430.572C533.293 431.916 532.68 433.122 532.604 433.274C532.421 433.64 532.203 433.892 532.115 433.991C531.909 434.223 531.688 434.413 531.545 434.53C531.227 434.791 530.813 435.088 530.354 435.396C529.415 436.025 528.072 436.845 526.405 437.771C523.066 439.625 518.324 441.957 512.736 444.067C507.027 446.223 500.316 448.19 493.25 449.136C500.259 443.534 505.389 425.546 505.389 404.221C505.389 381.795 499.716 363.062 492.15 358.54Z" fill="#F8F0E3"/>
<path d="M651.28 358.394C672.595 356.796 686.809 364.748 695.65 373.202C700.042 377.401 703.085 381.699 705.035 384.957C706.011 386.588 706.719 387.967 707.188 388.954C707.421 389.447 707.596 389.846 707.717 390.132C707.777 390.274 707.825 390.392 707.86 390.482C707.878 390.526 707.895 390.572 707.911 390.615C707.918 390.634 707.931 390.67 707.945 390.712C707.951 390.728 707.968 390.778 707.986 390.842C707.997 390.879 708.024 390.98 708.039 391.045C708.066 391.188 708.1 391.869 708.019 392.4L707.864 393.025L707.468 393.531C707.074 394.033 706.673 394.444 706.34 394.774C705.969 395.142 705.751 395.343 705.487 395.621C705.064 396.068 704.692 396.548 704.354 397.364C703.652 399.06 703.013 402.404 703.269 409.833L703.332 411.374C703.904 423.425 697.233 432.345 690.12 438.243C683.044 444.11 675.084 447.38 671.87 448.154L671.218 448.306C665.077 449.688 658.765 449.76 652.687 449.05C659.642 443.354 664.724 425.44 664.724 404.22C664.724 381.551 658.927 362.654 651.238 358.396L651.28 358.394ZM642.695 359.839C636.007 365.983 631.179 383.53 631.179 404.22C631.179 423.117 635.207 439.393 641.001 446.753C637.82 445.888 634.802 444.884 632.021 443.834C626.434 441.724 621.692 439.391 618.353 437.537C616.686 436.612 615.342 435.792 614.403 435.162C613.944 434.854 613.53 434.558 613.212 434.297C613.069 434.18 612.848 433.99 612.642 433.758C612.554 433.659 612.336 433.406 612.153 433.041C612.077 432.888 611.465 431.683 612.134 430.339L612.201 430.219C612.197 430.228 612.215 430.189 612.259 430.082C612.321 429.931 612.406 429.704 612.508 429.41C612.711 428.824 612.961 428.025 613.201 427.096C613.69 425.207 614.1 422.952 614.1 420.945L614.083 420.325C613.92 416.539 612.72 402.675 616.129 389.32C617.965 382.127 621.186 374.798 626.808 369.04C630.867 364.882 636.083 361.645 642.695 359.839Z" fill="#F8F0E3"/>
<path d="M505.394 337.561C506.584 336.12 508.871 335.654 511.792 336.278C514.685 336.897 518.056 338.565 521.196 341.157C524.336 343.749 526.613 346.743 527.768 349.467C528.934 352.216 528.91 354.55 527.72 355.991C526.53 357.433 524.243 357.899 521.322 357.275C518.429 356.656 515.058 354.988 511.918 352.396C508.778 349.804 506.502 346.81 505.346 344.086C504.18 341.337 504.204 339.003 505.394 337.561Z" fill="#F8F0E3" stroke="#F8F0E3"/>
<path d="M640.665 336.926C639.475 335.485 637.188 335.019 634.267 335.643C631.373 336.262 628.002 337.93 624.862 340.522C621.723 343.114 619.446 346.108 618.29 348.832C617.124 351.581 617.149 353.915 618.339 355.356C619.529 356.798 621.816 357.264 624.736 356.64C627.63 356.022 631.001 354.353 634.141 351.761C637.281 349.169 639.557 346.175 640.713 343.451C641.879 340.702 641.855 338.368 640.665 336.926Z" fill="#F8F0E3" stroke="#F8F0E3"/>
<path d="M570.308 463.091C574.52 463.108 579.113 463.154 582.867 463.203L586.297 463.253L586.591 463.257L586.729 463.517L592.61 474.524L598.077 463.53L598.216 463.253H610.379L610.619 463.259C611.837 463.317 613.295 463.809 614.501 464.769C615.801 465.802 616.819 467.387 616.919 469.551C617.018 471.701 616.21 474.361 613.998 477.564C611.923 480.569 608.594 484.08 603.551 488.139L602.52 488.958C594.457 495.275 583.386 498.634 572.498 498.741C561.952 498.845 551.512 495.899 544.11 489.559L543.404 488.935C539.746 485.603 535.173 480.343 532.742 475.387C531.53 472.914 530.818 470.451 531.083 468.312C531.355 466.121 532.644 464.343 535.244 463.289L535.334 463.253H547.612L547.744 463.552L552.52 474.435L557.927 463.53L558.048 463.286L558.319 463.256C559.733 463.099 564.712 463.069 570.308 463.091ZM572.859 470.822C559.296 470.822 548.301 476.722 548.301 484C548.301 490.734 557.714 496.288 569.865 497.081C570.847 497.143 572.445 491.188 573.459 491.188C574.888 491.189 575.69 497.112 577.053 496.987C588.619 495.92 597.419 490.511 597.419 484C597.419 476.722 586.423 470.822 572.859 470.822Z" fill="#F8F0E3"/>
<path d="M1072.49 417.967C969.783 587.56 774.481 681.209 689.668 706.834C888.083 595.015 939.437 476.207 939.437 390.013C939.437 321.057 847.622 361.281 801.714 390.013C947.374 224.147 1089.61 216.848 1142.52 233.931C993.126 261.886 995.46 392.342 1004.8 427.286C1012.27 455.241 1053.04 432.721 1072.49 417.967Z" stroke="#F8F0E3" stroke-width="13"/>
<path d="M72.0353 417.967C174.744 587.56 370.047 681.209 454.859 706.834C256.444 595.015 205.09 476.207 205.09 390.013C205.09 321.057 296.906 361.281 342.813 390.013C197.153 224.147 54.9171 216.848 2.00647 233.931C151.401 261.886 149.067 392.342 139.73 427.286C132.26 455.241 91.4877 432.721 72.0353 417.967Z" stroke="#F8F0E3" stroke-width="13"/>
<path d="M513.722 652.615C508.655 653.125 503.735 653.286 499.188 653.286C504.374 652.72 509.212 652.502 513.722 652.615C541.38 649.83 573.417 636.668 573.06 582.779C572.926 580.507 572.866 578.321 572.866 576.25C572.982 578.49 573.046 580.666 573.06 582.779C574.789 612.122 588.889 655.959 646.544 653.286C611.872 654.894 572.866 657.606 572.866 726.003C568.958 682.51 555.068 653.65 513.722 652.615Z" fill="#F8F0E3"/>
<path d="M499.188 653.286C529.526 653.286 576.478 646.087 572.866 576.25C572.866 605.052 584.423 656.166 646.544 653.286C611.872 654.894 572.866 657.606 572.866 726.003C568.532 677.765 551.918 647.527 499.188 653.286Z" stroke="#F8F0E3" stroke-width="5" stroke-linejoin="round"/>
</svg>
